<?xml version="1.0" standalone="no"?>
<svg xmlns="http://www.w3.org/2000/svg" xmlns:xlink="http://www.w3.org/1999/xlink" height="1080px" width="1920px">
  <defs>
    <pattern id="doodad" width="76" height="76" viewBox="0 0 40 40" patternUnits="userSpaceOnUse" patternTransform="rotate(135)">
      <rect width="100%" height="100%" fill="rgba(43, 96, 159,1)"/>
      <circle cx="20" cy="20" r="3" fill="rgba(208, 185, 255,1)"/>
      <path d="M19.4 20a 0.6 0.6 0 0 0 1.2 0a 0.6 0.6 0 0 0-1.2 0m0.5 0a 0.1 0.1 0 0 1 0.2 0a 0.1 0.1 0 0 1-0.2 0zM18.8 20a 1.2 1.2 0 0 0 2.4 0a 1.2 1.2 0 0 0-2.4 0m0.5 0a 0.7 0.7 0 0 1 1.4 0a 0.7 0.7 0 0 1-1.4 0zM18.2 20a 1.8 1.8 0 0 0 3.6 0a 1.8 1.8 0 0 0-3.6 0m0.5 0a 1.3 1.3 0 0 1 2.6 0a 1.3 1.3 0 0 1-2.6 0zM17.6 20a 2.4 2.4 0 0 0 4.8 0a 2.4 2.4 0 0 0-4.8 0m0.5 0a 1.9 1.9 0 0 1 3.8 0a 1.9 1.9 0 0 1-3.8 0zM17 20a 3 3 0 0 0 6 0a 3 3 0 0 0-6 0m0.5 0a 2.5 2.5 0 0 1 5 0a 2.5 2.5 0 0 1-5 0z" fill="rgba(127, 156, 245,1)"/>
    </pattern>
  </defs>
  <rect fill="url(#doodad)" height="200%" width="200%"/>
</svg>
