<svg xmlns="http://www.w3.org/2000/svg" version="1.1" xmlns:xlink="http://www.w3.org/1999/xlink" xmlns:svgjs="http://svgjs.dev/svgjs" viewBox="0 0 1920 1080"><rect width="1920" height="1080" fill="#0528b4"></rect><g transform="matrix(7.04171909509728e-17,1.15,-1.15,7.04171909509728e-17,1539.0285034179688,-515.7327789306639)"><path d="M0,-1080C-10.284592397218555,-993.7119511935832,-65.84678742512095,-680.5732651509722,-61.70755438331133,-562.2717071614995C-57.56832134150172,-443.9701491720268,21.054394033848087,-495.14860375401526,24.83539825085768,-370.1906520631637C28.61640246786727,-245.2327003723122,-51.90352463875032,41.93867218499449,-39.02152908125379,187.47600298360973C-26.139533523757258,333.013333782225,89.87322889312273,375.32931365435746,102.12737159583688,503.03333272852774C114.38151429855102,630.737351802698,32.975426088308105,798.5154802158514,34.5033271350311,953.7001174286314C36.031228181754095,1108.8847546414113,130.60256960108393,1287.4106678496996,111.29477787617483,1434.1411560052077C91.98698615126575,1580.8716441607157,-62.79429356839424,1713.1065723625475,-81.34342321442338,1834.0830463616794C-99.89255286045253,1955.0595203608113,-13.557237202403897,2105.6805077269464,0,2160L 1920 2160 L 1920 -1080 Z" fill="url(&quot;#SvgjsLinearGradient1880&quot;)"></path><path d="M213.33333333333331,-1080C202.65482250677064,-1002.7818558584052,146.36887289359547,-760.988517550308,149.26226837395734,-616.6911351504311C152.15566385431922,-472.3937527505543,222.4743537018461,-318.217807676698,230.69370621550453,-214.215705600739C238.91305872916297,-110.21360352478,190.70538725472525,-122.42723896057521,198.5783834559079,7.3214773053228726C206.45137965709054,137.07019357122095,270.78555742169095,412.73076863230153,277.9316834226004,564.2765919946494C285.0778094235098,715.8224153569972,265.535628960773,800.9091090697275,241.45513946136438,916.5964174794102C217.37464996195573,1032.283725889093,124.8587992670416,1136.5018849060334,133.44874642614846,1258.400442452746C142.03869358525532,1380.2989999994584,279.6807245981414,1497.7211698351425,292.99482241600555,1647.9877627596848C306.3089202338697,1798.254355684227,226.61024818044535,2074.664627126614,213.33333333333331,2160L 1920 2160 L 1920 -1080 Z" fill="url(&quot;#SvgjsLinearGradient1881&quot;)"></path><path d="M426.66666666666663,-1080C434.131921694796,-976.0114364076271,491.9994457785225,-645.2101250178285,471.4581968354429,-456.06861844576247C450.9169478923633,-266.9271118736964,296.75701641162823,-109.00241494733012,303.419173008189,54.84903943239638C310.0813296047497,218.7004938121229,479.98304520247405,353.83778674803364,511.43113641480727,527.0401078325965C542.8792276271405,700.2424289171594,517.857347468429,893.1792568922032,492.1077202821882,1094.0629659397734C466.3580930959474,1294.9466749873436,367.84021556661617,1554.6861897746471,356.93337329736255,1732.3423621180182C346.02653102810893,1909.9985344613892,415.04445110511597,2088.7237270196697,426.66666666666663,2160L 1920 2160 L 1920 -1080 Z" fill="url(&quot;#SvgjsLinearGradient1882&quot;)"></path><path d="M640,-1080C641.1430815671027,-996.92481810341,626.8199831144075,-749.7613872639465,646.8584894026164,-581.5489086204598C666.8969956908254,-413.336429976973,780.367735246794,-222.56533606382342,760.2310377292537,-70.72512813907923C740.0943402117133,81.11507978566496,539.0446065305713,191.42434994053713,526.038304297374,329.4923389280053C513.0320020641767,467.5603279154735,649.1030436509386,601.2237794304294,682.1932243300697,757.6828057857299C715.2834050092008,914.1418321410304,711.5785126931846,1116.405371815694,724.5793883721603,1268.246497059808C737.580264051136,1420.087622303922,774.2950431326173,1520.103973427048,760.1984784039239,1668.7295572504133C746.1019136752305,1817.3551410737787,660.0330797339873,2078.121592875069,640,2160L 1920 2160 L 1920 -1080 Z" fill="url(&quot;#SvgjsLinearGradient1883&quot;)"></path><path d="M853.3333333333333,-1080C853.1781498012085,-981.3994419127896,845.0380220328591,-721.961018139428,852.402232140585,-488.3966514767378C859.766442248311,-254.8322848140476,881.7052975554252,76.80019911485996,897.5185939796888,321.3861999761414C913.3318904039525,565.9722008374229,940.1106810937204,763.4316816725487,947.2820106861672,979.1193536909509C954.453340278614,1194.8070257093532,956.204684426509,1418.6987910350463,940.54657153437,1615.5122320865544C924.888458642231,1812.3256731380625,867.868873033506,2069.2520386810925,853.3333333333333,2160L 1920 2160 L 1920 -1080 Z" fill="url(&quot;#SvgjsLinearGradient1884&quot;)"></path><path d="M1066.6666666666667,-1080C1086.2909759191598,-993.0712576931016,1202.4913933164732,-723.9050113566319,1184.4125221816244,-558.4275461586102C1166.3336510467755,-392.9500809605885,989.0527362177199,-217.5785886018867,958.1934398575738,-87.13520881186963C927.3341434974277,43.308170978147444,990.4925945413756,72.73622840496589,999.2567440207474,224.23273258149237C1008.0208935001192,375.7292367580188,996.1008901653566,669.2117620004944,1010.7783367338045,821.8438162472892C1025.4557833022523,974.4758704940839,1078.5135897477635,992.4826364995926,1087.3214234314344,1140.0250580622605C1096.1292571151052,1287.5674796249286,1067.067798296624,1537.1025219670073,1063.6253388358293,1707.0983456232973C1060.1828793750346,1877.0941692795873,1066.1597786948605,2084.5163909372163,1066.6666666666667,2160L 1920 2160 L 1920 -1080 Z" fill="url(&quot;#SvgjsLinearGradient1885&quot;)"></path><path d="M1280,-1080C1284.0153022609463,-1013.3863040861563,1306.0481899136926,-834.2100849868875,1304.0918135656782,-680.317824516938C1302.1354372176638,-526.4255640469885,1283.8153191417491,-317.02641379298257,1268.2617419119142,-156.64643718030266C1252.7081646820793,3.733539432377256,1208.2447222220587,118.21469404704672,1210.7703501866688,281.9620351591414C1213.2959781512789,445.7093762712361,1269.6461122571568,658.6318420286145,1283.4155096995744,825.8376094922654C1297.184907141992,993.0433769559163,1288.596353195109,1151.7390411470901,1293.3867348411743,1285.196639941047C1298.1771164872396,1418.6542387350037,1314.388922049495,1480.7826422461799,1312.157799575966,1626.5832022560055C1309.926677102437,1772.3837622658311,1285.359633262661,2071.0972003760007,1280,2160L 1920 2160 L 1920 -1080 Z" fill="url(&quot;#SvgjsLinearGradient1886&quot;)"></path><path d="M1493.3333333333333,-1080C1508.876280386523,-958.7082953382272,1577.070165627631,-562.9882405576556,1586.5910156524708,-352.24977202936367C1596.1118656773106,-141.51130350107175,1582.3938085411894,-4.6549685345629825,1550.4584334823724,184.4308111697514C1518.5230584235553,373.51659087406574,1402.6096836234442,579.6468168388236,1394.9787652995685,782.2649061965225C1387.3478469756928,984.8829955542213,1488.2804955334902,1170.516831682032,1504.6729235391176,1400.1393473159449C1521.065351544745,1629.7618629498577,1495.2232650342974,2033.3565578859907,1493.3333333333333,2160L 1920 2160 L 1920 -1080 Z" fill="url(&quot;#SvgjsLinearGradient1887&quot;)"></path><path d="M1706.6666666666665,-1080C1719.3853555164865,-964.6887324001955,1793.499771674972,-659.0089433675059,1782.9787997655858,-388.1323944011731C1772.4578278561996,-117.2558454348403,1657.4745564630796,259.3457137799996,1643.540835210349,545.2592937979966C1629.6071139576186,831.1728738159936,1688.855500339817,1058.225634673142,1699.376472249203,1327.349085706809C1709.8974441585892,1596.4725367404762,1705.451634263756,2021.2248476178015,1706.6666666666665,2160L 1920 2160 L 1920 -1080 Z" fill="url(&quot;#SvgjsLinearGradient1888&quot;)"></path></g><defs><linearGradient x1="0.1" y1="0" x2="0" y2="1" id="SvgjsLinearGradient1880"><stop stop-color="#0528b4" offset="0"></stop><stop stop-color="#0545b4" offset="0"></stop></linearGradient><linearGradient x1="0.1" y1="0" x2="0" y2="1" id="SvgjsLinearGradient1881"><stop stop-color="#0526aa" offset="0"></stop><stop stop-color="#0541aa" offset="0.1111111111111111"></stop></linearGradient><linearGradient x1="0.1" y1="0" x2="0" y2="1" id="SvgjsLinearGradient1882"><stop stop-color="#0424a0" offset="0"></stop><stop stop-color="#043ea0" offset="0.2222222222222222"></stop></linearGradient><linearGradient x1="0.1" y1="0" x2="0" y2="1" id="SvgjsLinearGradient1883"><stop stop-color="#042196" offset="0"></stop><stop stop-color="#043996" offset="0.3333333333333333"></stop></linearGradient><linearGradient x1="0.1" y1="0" x2="0" y2="1" id="SvgjsLinearGradient1884"><stop stop-color="#041f8d" offset="0"></stop><stop stop-color="#04368d" offset="0.4444444444444444"></stop></linearGradient><linearGradient x1="0.1" y1="0" x2="0" y2="1" id="SvgjsLinearGradient1885"><stop stop-color="#041d83" offset="0"></stop><stop stop-color="#043283" offset="0.5555555555555556"></stop></linearGradient><linearGradient x1="0.1" y1="0" x2="0" y2="1" id="SvgjsLinearGradient1886"><stop stop-color="#031b79" offset="0"></stop><stop stop-color="#032f79" offset="0.6666666666666666"></stop></linearGradient><linearGradient x1="0.1" y1="0" x2="0" y2="1" id="SvgjsLinearGradient1887"><stop stop-color="#03196f" offset="0"></stop><stop stop-color="#032b6f" offset="0.7777777777777778"></stop></linearGradient><linearGradient x1="0.1" y1="0" x2="0" y2="1" id="SvgjsLinearGradient1888"><stop stop-color="#031765" offset="0"></stop><stop stop-color="#032765" offset="0.8888888888888888"></stop></linearGradient></defs></svg>