<svg xmlns="http://www.w3.org/2000/svg" version="1.1" xmlns:xlink="http://www.w3.org/1999/xlink" xmlns:svgjs="http://svgjs.dev/svgjs" viewBox="0 0 1920 1080"><rect width="1920" height="1080" fill="#5878fa"></rect><g transform="matrix(7.04171909509728e-17,1.15,-1.15,7.04171909509728e-17,1530.8930206298828,-506.37697372436514)"><path d="M0,-1080C0.42523977829759946,-962.9788510161166,-9.393019898535465,-573.0654323756542,2.551438669785597,-377.8731060966992C14.495897238106659,-182.68077981774425,88.77221288092046,-136.85340657563384,71.66675140992638,91.15395767372956C54.56128993893229,319.16132192309294,-105.46044332831482,770.4033268476109,-100.08133015617892,990.1710793994814C-94.70221698404302,1209.9388319513519,87.26120875004533,1214.7889862181996,103.94143044274182,1409.7604729849527C120.62165213543831,1604.7319597517057,17.32357174045697,2034.9600788308255,0,2160L 1920 2160 L 1920 -1080 Z" fill="url(&quot;#SvgjsLinearGradient1862&quot;)"></path><path d="M213.33333333333331,-1080C218.69361100085615,-951.9130829818438,226.84654278838485,-528.2690924614159,245.4949993384703,-311.47849789106294C264.14345588855576,-94.68790332071,316.85546240519864,26.32055077575376,325.2240726338461,220.74356742211765C333.5926828624936,415.16658406848154,316.1470981574294,620.8271486563151,295.70666071035515,855.0596019871206C275.2662232632809,1089.292055317926,216.31033584757097,1408.6482210714703,202.58144795140066,1626.1382874069502C188.85256005523036,1843.6283537424301,211.54135243634454,2071.0230479011584,213.33333333333331,2160L 1920 2160 L 1920 -1080 Z" fill="url(&quot;#SvgjsLinearGradient1863&quot;)"></path><path d="M426.66666666666663,-1080C443.18801071641235,-974.3569264310563,532.837099115219,-642.3824122831608,525.794730965141,-446.14155858633785C518.752362815063,-249.9007048895149,402.5496502312421,-80.4702542413641,384.4124577661987,97.44512218093777C366.27526530115534,275.36049860323965,420.1009586569743,471.4877589167988,416.9715761748806,621.3506999474735C413.84219369278696,771.2136409781481,372.8974732086623,841.2169291573701,365.63616287363664,996.6227683649859C358.374852538611,1152.0286075726017,363.23196353255514,1359.8895299206654,373.4037141647268,1553.7857351931677C383.5754647968985,1747.68194046567,417.7895079163433,2058.9642891988615,426.66666666666663,2160L 1920 2160 L 1920 -1080 Z" fill="url(&quot;#SvgjsLinearGradient1864&quot;)"></path><path d="M640,-1080C641.5712250847968,-1004.3129193972039,649.2641942970405,-773.5795227422675,649.4273505087806,-625.8775163832233C649.5905067205207,-478.17551002417923,624.9815016052119,-329.9807506782031,640.9789372704405,-193.78796184573534C656.9763729356691,-57.59517301326758,729.3363623471737,50.00089285196262,745.4119645001522,191.27921661158314C761.4875666531307,332.5575403712037,734.5841464257288,475.064474373875,737.4325501883116,653.8819807119878C740.2809539508943,832.6994870501006,792.2737454455578,1103.018792895752,762.5023870756484,1264.1842546402602C732.7310287057389,1425.3497163847683,579.2214644814628,1471.5721269524129,558.8043999688548,1620.8747511790361C538.3873354562468,1770.1773754056594,626.4673999948092,2070.1457918631727,640,2160L 1920 2160 L 1920 -1080 Z" fill="url(&quot;#SvgjsLinearGradient1865&quot;)"></path><path d="M853.3333333333333,-1080C862.0151818036877,-993.8071256493181,901.7362383667304,-757.7752181211642,905.4244241554601,-562.8427538959082C909.1126099441898,-367.9102896706522,901.4851441394252,-80.76543993690268,875.4624480657116,89.59478535153576C849.4397519919979,259.9550106399742,732.8612273653071,273.8760341133834,749.2882477131784,459.3185978347225C765.7152680610498,644.7611615560616,957.1091582959432,1029.038616030235,974.0245701529399,1202.25016767957C990.9399820099366,1375.461719328905,870.8959249917596,1338.9629356773278,850.7807188551585,1498.5879077307327C830.6655127185575,1658.2128797841376,852.9078975869708,2049.7646512884553,853.3333333333333,2160L 1920 2160 L 1920 -1080 Z" fill="url(&quot;#SvgjsLinearGradient1866&quot;)"></path><path d="M1066.6666666666667,-1080C1080.6754289703886,-954.0872393592244,1133.113605844891,-520.0430144908998,1150.7192404889984,-324.5234361553467C1168.3248751331057,-129.00385781979352,1186.7058923612362,-91.14660331101848,1172.30047453131,93.11747001331898C1157.895056701384,277.38154333765647,1101.1302670189161,529.1159356530748,1064.2867335094415,781.061003790678C1027.443199999967,1033.0060719282812,950.842617948258,1374.9647128040517,951.2392734744622,1604.7878788389387C951.6359290006664,1834.6110448738257,1047.4287678012993,2067.4646464731563,1066.6666666666667,2160L 1920 2160 L 1920 -1080 Z" fill="url(&quot;#SvgjsLinearGradient1867&quot;)"></path><path d="M1280,-1080C1260.5554821141836,-954.7320669906517,1165.4778163801602,-595.7929393955499,1163.3328926851016,-328.39240194391004C1161.187968990043,-60.99186449227017,1257.5462250451246,246.6292616301992,1267.130457829648,524.4032247098392C1276.7146906141716,802.1771877894791,1218.693365697184,1065.6519139855695,1220.8382893922426,1338.2513765339297C1222.9832130873012,1610.85083908229,1270.139714898707,2023.0418960889883,1280,2160L 1920 2160 L 1920 -1080 Z" fill="url(&quot;#SvgjsLinearGradient1868&quot;)"></path><path d="M1493.3333333333333,-1080C1512.179901253287,-997.1702513272808,1598.0669218155772,-744.3425867612524,1606.4127408530558,-583.0215079636845C1614.7585598905343,-421.7004291661166,1575.583960224542,-279.7441879179021,1543.4082475582052,-112.07352721459227C1511.2325348918685,55.59713348871756,1432.0687684384945,279.94325817612344,1413.3584648550357,423.0024562561746C1394.6481612715768,566.0616543362257,1402.8948242024283,615.1022989607677,1431.1464260574514,746.2816612657144C1459.3980279124746,877.4610235706612,1557.106903890673,1042.1604448638725,1582.868075985175,1210.0786300858547C1608.629248079677,1377.9968153078369,1600.635915733103,1595.4705442785828,1585.7134586244629,1753.790772597607C1570.7910015158227,1912.1110009166312,1508.730020881855,2092.2984620996012,1493.3333333333333,2160L 1920 2160 L 1920 -1080 Z" fill="url(&quot;#SvgjsLinearGradient1869&quot;)"></path><path d="M1706.6666666666665,-1080C1718.1999681734562,-991.2264891470168,1784.210329615968,-719.8914898523124,1775.8664757074048,-547.3589348821007C1767.5226217988416,-374.82637991188903,1665.305353527973,-238.6081847518718,1656.6035432152876,-44.80467017873025C1647.9017329026021,148.9988443944113,1734.185931404393,424.84328691483984,1723.6556138312926,615.4621525567485C1713.1252962581923,806.0810181986571,1597.605641217767,936.5282656207115,1593.4216377766859,1098.908523672722C1589.2376343356048,1261.2887817247322,1679.6774217031425,1412.895121480931,1698.5515931848058,1589.7437008688107C1717.4257646664691,1766.5922802566904,1705.3141544196897,2064.957283478135,1706.6666666666665,2160L 1920 2160 L 1920 -1080 Z" fill="url(&quot;#SvgjsLinearGradient1870&quot;)"></path></g><defs><linearGradient x1="0.1" y1="0" x2="0" y2="1" id="SvgjsLinearGradient1862"><stop stop-color="#5878fa" offset="0"></stop><stop stop-color="#5893fa" offset="0"></stop></linearGradient><linearGradient x1="0.1" y1="0" x2="0" y2="1" id="SvgjsLinearGradient1863"><stop stop-color="#3d62f9" offset="0"></stop><stop stop-color="#3d81f9" offset="0.1111111111111111"></stop></linearGradient><linearGradient x1="0.1" y1="0" x2="0" y2="1" id="SvgjsLinearGradient1864"><stop stop-color="#224cf8" offset="0"></stop><stop stop-color="#2270f8" offset="0.2222222222222222"></stop></linearGradient><linearGradient x1="0.1" y1="0" x2="0" y2="1" id="SvgjsLinearGradient1865"><stop stop-color="#0737f7" offset="0"></stop><stop stop-color="#075ff7" offset="0.3333333333333333"></stop></linearGradient><linearGradient x1="0.1" y1="0" x2="0" y2="1" id="SvgjsLinearGradient1866"><stop stop-color="#0731dc" offset="0"></stop><stop stop-color="#0754dc" offset="0.4444444444444444"></stop></linearGradient><linearGradient x1="0.1" y1="0" x2="0" y2="1" id="SvgjsLinearGradient1867"><stop stop-color="#062bc1" offset="0"></stop><stop stop-color="#064ac1" offset="0.5555555555555556"></stop></linearGradient><linearGradient x1="0.1" y1="0" x2="0" y2="1" id="SvgjsLinearGradient1868"><stop stop-color="#0525a6" offset="0"></stop><stop stop-color="#0540a6" offset="0.6666666666666666"></stop></linearGradient><linearGradient x1="0.1" y1="0" x2="0" y2="1" id="SvgjsLinearGradient1869"><stop stop-color="#041f8b" offset="0"></stop><stop stop-color="#04358b" offset="0.7777777777777778"></stop></linearGradient><linearGradient x1="0.1" y1="0" x2="0" y2="1" id="SvgjsLinearGradient1870"><stop stop-color="#031970" offset="0"></stop><stop stop-color="#032b70" offset="0.8888888888888888"></stop></linearGradient></defs></svg>