<svg xmlns="http://www.w3.org/2000/svg" version="1.1" xmlns:xlink="http://www.w3.org/1999/xlink" xmlns:svgjs="http://svgjs.dev/svgjs" viewBox="0 0 1920 1080"><rect width="1920" height="1080" fill="#efddff"></rect><g transform="matrix(7.04171909509728e-17,1.15,-1.15,7.04171909509728e-17,1519.8080673217773,-493.62927742004376)"><path d="M0,-1080C18.996690521586583,-1014.9923365067258,122.61776989195437,-816.5812838648624,113.98014312951949,-689.9540190403545C105.34251636708461,-563.3267542158467,-33.689042741713735,-473.5437775567808,-51.82576057460929,-320.2364110529527C-69.96247840750485,-166.92904454912454,-18.071579939038035,92.31082807201497,5.159836132146182,229.89017998261437C28.3912522033304,367.4695318932138,95.95186417036611,387.98579232681215,87.56273585249602,505.23970041064376C79.17360753462593,622.4936084944754,-29.327443830379288,801.0241271777006,-45.17493377507438,933.4136284856042C-61.02242371976947,1065.8031297935079,5.344057641622763,1170.9774041028852,-7.522203815674516,1299.5767082580658C-20.388465272971793,1428.1760124132463,-123.6262031548038,1561.6055714596982,-122.37250251885806,1705.0094534166872C-121.11880188291231,1848.413335373676,-20.395417086476343,2084.1682422361146,0,2160L 1920 2160 L 1920 -1080 Z" fill="url(&quot;#SvgjsLinearGradient1470&quot;)"></path><path d="M160,-1080C159.06080602445311,-1008.1358280777979,136.13028009718545,-778.6920463547378,154.36483614671863,-648.8149684667873C172.5993921962518,-518.9378905788367,253.09657235602052,-410.71117412600756,269.4073362971991,-300.7375326722964C285.71810023837764,-190.7638912185853,268.87215518691704,-138.27629211835637,252.22941979379007,11.02688025547971C235.5866844006631,160.3300526293158,180.64367703961145,439.2961134185749,169.55092393843734,595.0815015707201C158.45817083726322,750.8668897228653,196.45118362943518,801.1089420826403,185.67290118674538,945.7392091683507C174.89461874405558,1090.3694762540613,97.36076692379565,1342.8871648044085,104.8812292822985,1462.8631040849828C112.40169164080136,1582.839043365557,221.60921355147892,1549.405362199293,230.7956753377625,1665.5948448517959C239.9821371240461,1781.7843275042987,171.79927922296042,2077.5991408086325,160,2160L 1920 2160 L 1920 -1080 Z" fill="url(&quot;#SvgjsLinearGradient1471&quot;)"></path><path d="M320,-1080C306.0321257688197,-1002.7782077463997,226.30771587750706,-736.6607304584343,236.19275461291832,-616.6692464783985C246.07779334832958,-496.6777624983626,353.5764582128571,-482.4437164358449,379.31023241246754,-360.051096119785C405.04400661207796,-237.65847580372503,391.47066373326714,-47.1029330576512,390.59539981058083,117.68647541796119C389.7201358878945,282.4758838935736,404.6705865716385,495.8672275651246,374.0586488763497,628.6853547338894C343.4467111810609,761.5034819026542,233.35201763767012,794.2972172829967,206.92377363884785,914.5952384305501C180.49552964002558,1034.8932595781034,183.45605368661165,1222.9560795054979,215.4891848834161,1350.4734816192097C247.52231608022055,1477.9908837329215,381.7040916335773,1544.7785647160222,399.1225608196746,1679.6996511128204C416.5410300057719,1814.6207375096187,333.18709346994575,2079.949941852137,320,2160L 1920 2160 L 1920 -1080 Z" fill="url(&quot;#SvgjsLinearGradient1472&quot;)"></path><path d="M480,-1080C499.0868865646648,-960.6084785464595,603.8003953148979,-590.648131543313,594.5213193879887,-363.650871278757C585.2422434610795,-136.65361101420106,422.51841232307163,61.48837764276888,424.3255444385452,281.9835615873355C426.13267655401876,502.47874553190206,611.1719684102736,769.523006187621,605.3641120808302,959.3202323886426C599.5562557513867,1149.1174585896642,410.372425142023,1220.6536241915721,389.4784064618847,1420.766918793465C368.58438778174633,1620.880213395358,464.91306774364745,2036.7944864655774,480,2160L 1920 2160 L 1920 -1080 Z" fill="url(&quot;#SvgjsLinearGradient1473&quot;)"></path><path d="M640,-1080C657.3849623308114,-966.3026757216259,747.6365832267724,-649.433793077164,744.3097739848683,-397.8160543297549C740.9829647429643,-146.19831558234586,622.8034708719714,153.81521788679447,620.0391445485758,429.70643248445407C617.2748182251802,705.5976470821137,724.3970068025905,969.1489720036118,727.7238160444945,1257.5312332562028C731.0506252863985,1545.9134945087937,654.6206360074158,2009.588538876034,640,2160L 1920 2160 L 1920 -1080 Z" fill="url(&quot;#SvgjsLinearGradient1474&quot;)"></path><path d="M800,-1080C797.1911390569982,-972.3128893783257,764.1007832010724,-612.4371737316246,783.1468343419888,-433.8773362699547C802.1928854829051,-255.31749880828474,919.0339565552243,-169.2019649516795,914.2763068454979,-8.640975229980256C909.5186571357714,151.920014491719,766.1370160112,337.98268862930126,754.6009360836301,529.488602060241C743.0648561560603,720.9945154911807,816.6708263093275,962.618986083159,845.0598272800789,1140.3945053556579C873.4488282508304,1318.1700246281566,932.4449131214855,1426.2074685878438,924.934941908139,1596.141717695234C917.4249706947925,1766.0759668026244,820.8224903180231,2066.023619615872,800,2160L 1920 2160 L 1920 -1080 Z" fill="url(&quot;#SvgjsLinearGradient1475&quot;)"></path><path d="M960,-1080C939.8027061099643,-985.7968462615748,857.3925557908349,-681.2742232486311,838.816236659786,-514.7810775694493C820.2399175287371,-348.2879318902675,809.1538033253482,-252.79430851291107,848.5420852137065,-81.0411259249091C887.9303671020648,90.71205666309288,1048.9992544722118,315.35254621261265,1075.145927989936,515.7380179585625C1101.29260150766,716.1234897045124,1034.0296388271875,923.2994331455765,1005.422126320052,1121.2717045507904C976.8146138129165,1319.2439759560043,911.0712073337982,1530.450263814978,903.5008529471228,1703.5716463898461C895.9304985604474,1876.6930289647144,950.5834754911871,2083.928607731641,960,2160L 1920 2160 L 1920 -1080 Z" fill="url(&quot;#SvgjsLinearGradient1476&quot;)"></path><path d="M1120,-1080C1121.0497138487317,-934.7810105780351,1124.622225034798,-486.985277412942,1126.2982830923895,-208.6860634682103C1127.974341149981,69.61315047652141,1127.7112098671985,309.46368433132506,1130.0563483455487,589.7952836683902C1132.401486823899,870.1268830054553,1142.0451720200824,1211.6027464989124,1140.369113962491,1473.3035325541807C1138.6930559048994,1735.004318609449,1123.394852327082,2045.5505887590302,1120,2160L 1920 2160 L 1920 -1080 Z" fill="url(&quot;#SvgjsLinearGradient1477&quot;)"></path><path d="M1280,-1080C1293.843243105282,-993.0483675759672,1362.6252924234268,-738.3860404882683,1363.0594586316918,-558.2902054558032C1363.4936248399567,-378.194370423338,1299.010736076899,-198.2406375782886,1282.6049972495894,0.5750101947913322C1266.1992584222796,199.39065796787128,1271.7333417050404,439.3300155690905,1264.6250256678336,634.6036811826764C1257.5167096306268,829.8773467962623,1226.2714529076193,1005.6493362168507,1239.9551010263488,1172.2170038763068C1253.6387491450782,1338.784671535763,1340.0527645512689,1469.3791877854644,1346.7269143802107,1634.0096871394132C1353.4010642091525,1798.640186493362,1291.1211523967017,2072.3349478565688,1280,2160L 1920 2160 L 1920 -1080 Z" fill="url(&quot;#SvgjsLinearGradient1478&quot;)"></path><path d="M1440,-1080C1442.7697750622083,-992.2720859506177,1461.241373517235,-773.5437621838757,1456.6186503732492,-553.6325157037061C1451.9959272292635,-333.7212692235364,1402.1107870540093,14.734433916601233,1412.263661136086,239.46747888101822C1422.4165352181628,464.2005238454352,1504.3305062522459,573.543034630555,1517.5358948657101,794.7657540827959C1530.7412834791744,1015.9884735350367,1504.4186419611567,1339.2647546082628,1491.4959928168716,1566.8037955944635C1478.5733436725866,1794.3428365806642,1448.5826654694786,2061.133965932411,1440,2160L 1920 2160 L 1920 -1080 Z" fill="url(&quot;#SvgjsLinearGradient1479&quot;)"></path><path d="M1600,-1080C1601.4660685071863,-992.2068852579348,1594.9497708458505,-755.6359582696261,1608.7964110431183,-553.2413115476088C1622.643051240386,-350.84666482559146,1679.4597334567204,-90.5280097043728,1683.0798411836067,134.36788033210377C1686.699948910493,359.26377036858037,1653.1271558125486,554.0169392961444,1630.517057404436,796.1340286712507C1607.9069589963233,1038.251118046357,1552.5054269690027,1359.7594213612833,1547.41925073493,1587.0704165827415C1542.3330745008575,1814.3814118041996,1591.2365417891551,2064.5117360971235,1600,2160L 1920 2160 L 1920 -1080 Z" fill="url(&quot;#SvgjsLinearGradient1480&quot;)"></path><path d="M1760,-1080C1742.3994320619072,-980.3398814109861,1641.300608061571,-715.0851686888309,1654.3965923714425,-482.03928846591674C1667.492576681314,-248.99340824300256,1799.7087750726207,85.71623884746577,1838.5759058592296,318.2752813374851C1877.4430366458384,550.8343238275045,1919.7942020619714,706.4977637320666,1887.599377091096,913.3149664741993C1855.4045521202204,1120.132169216332,1666.6735188824928,1351.3976588693147,1645.4069560339767,1559.1784977902814C1624.1403931854607,1766.9593367112482,1740.9011593389962,2059.863082965047,1760,2160L 1920 2160 L 1920 -1080 Z" fill="url(&quot;#SvgjsLinearGradient1481&quot;)"></path></g><defs><linearGradient x1="0.1" y1="0" x2="0" y2="1" id="SvgjsLinearGradient1470"><stop stop-color="#efddff" offset="0"></stop><stop stop-color="#e9ddff" offset="0"></stop></linearGradient><linearGradient x1="0.1" y1="0" x2="0" y2="1" id="SvgjsLinearGradient1471"><stop stop-color="#ddb7ff" offset="0"></stop><stop stop-color="#d1b7ff" offset="0.08333333333333333"></stop></linearGradient><linearGradient x1="0.1" y1="0" x2="0" y2="1" id="SvgjsLinearGradient1472"><stop stop-color="#cb90ff" offset="0"></stop><stop stop-color="#b890ff" offset="0.16666666666666666"></stop></linearGradient><linearGradient x1="0.1" y1="0" x2="0" y2="1" id="SvgjsLinearGradient1473"><stop stop-color="#b96aff" offset="0"></stop><stop stop-color="#a06aff" offset="0.25"></stop></linearGradient><linearGradient x1="0.1" y1="0" x2="0" y2="1" id="SvgjsLinearGradient1474"><stop stop-color="#a743ff" offset="0"></stop><stop stop-color="#8843ff" offset="0.3333333333333333"></stop></linearGradient><linearGradient x1="0.1" y1="0" x2="0" y2="1" id="SvgjsLinearGradient1475"><stop stop-color="#951dff" offset="0"></stop><stop stop-color="#6f1dff" offset="0.4166666666666667"></stop></linearGradient><linearGradient x1="0.1" y1="0" x2="0" y2="1" id="SvgjsLinearGradient1476"><stop stop-color="#8200f6" offset="0"></stop><stop stop-color="#5900f6" offset="0.5"></stop></linearGradient><linearGradient x1="0.1" y1="0" x2="0" y2="1" id="SvgjsLinearGradient1477"><stop stop-color="#6e00cf" offset="0"></stop><stop stop-color="#4b00cf" offset="0.5833333333333334"></stop></linearGradient><linearGradient x1="0.1" y1="0" x2="0" y2="1" id="SvgjsLinearGradient1478"><stop stop-color="#5900a9" offset="0"></stop><stop stop-color="#3d00a9" offset="0.6666666666666666"></stop></linearGradient><linearGradient x1="0.1" y1="0" x2="0" y2="1" id="SvgjsLinearGradient1479"><stop stop-color="#450083" offset="0"></stop><stop stop-color="#2f0083" offset="0.75"></stop></linearGradient><linearGradient x1="0.1" y1="0" x2="0" y2="1" id="SvgjsLinearGradient1480"><stop stop-color="#31005c" offset="0"></stop><stop stop-color="#22005c" offset="0.8333333333333334"></stop></linearGradient><linearGradient x1="0.1" y1="0" x2="0" y2="1" id="SvgjsLinearGradient1481"><stop stop-color="#1d0036" offset="0"></stop><stop stop-color="#140036" offset="0.9166666666666666"></stop></linearGradient></defs></svg>