<svg xmlns="http://www.w3.org/2000/svg" version="1.1" xmlns:xlink="http://www.w3.org/1999/xlink" xmlns:svgjs="http://svgjs.dev/svgjs" viewBox="0 0 1920 1080"><rect width="1920" height="1080" fill="#be89fe"></rect><g transform="matrix(7.04171909509728e-17,1.15,-1.15,7.04171909509728e-17,1547.554428100586,-525.5375923156737)"><path d="M0,-1080C17.05607659552614,-980.6629438426901,112.8318658189055,-700.5068909925209,102.33645957315684,-483.97766305614084C91.84105332740819,-267.4484351197608,-42.980902492640226,1.467247246816811,-62.972437474491954,219.17536761828006C-82.96397245634368,436.88348798974334,-20.08362541441726,622.2948248935461,-17.612750317953555,822.2710591726386C-15.14187522148985,1022.2472934517311,-51.082645282035315,1196.077949821608,-48.14718689570972,1419.032773292835C-45.21172850938413,1641.987596764062,-8.024531149284954,2036.5054622154726,0,2160L 1920 2160 L 1920 -1080 Z" fill="url(&quot;#SvgjsLinearGradient1074&quot;)"></path><path d="M174.54545454545456,-1080C189.14360283108792,-1008.8366403649354,250.72118250859415,-800.9701588326653,262.13434425925476,-653.0198421896123C273.54750600991537,-505.06952554655925,261.2931511993635,-371.16883791729083,243.0244250494182,-192.29810014168189C224.75569889947292,-13.427362366072913,163.84291634443443,267.2795743885423,152.52198735958305,420.20458446404155C141.20105837473167,573.1295945395408,166.47330893349692,584.5123310629197,175.09885114030996,725.2519603113135C183.724393347123,865.9915895597073,208.6976625165629,1103.0000586685082,204.2752406004612,1264.6423599544044C199.85281868435948,1426.2846612403005,153.51928398620075,1545.8794946857583,148.56431964369963,1695.1057680266908C143.60935530119852,1844.3320413676233,170.21526539516208,2082.5176280044484,174.54545454545456,2160L 1920 2160 L 1920 -1080 Z" fill="url(&quot;#SvgjsLinearGradient1075&quot;)"></path><path d="M349.0909090909091,-1080C328.37718716794757,-995.0050504067055,236.4875555229983,-734.1513878698431,224.80857755313963,-570.0303024402333C213.12959958328096,-405.9092170106235,279.0027535076692,-247.0248011257989,279.01704127175714,-95.27348742234082C279.0313290358451,56.477826281117245,194.07586789691678,213.06722934694864,224.8943041376672,340.47757978051504C255.71274037841764,467.88793021408145,433.5167082906295,511.13685318739,463.9276587162597,669.1886151790576C494.33860914188995,827.2403771707252,415.1114618279345,1110.3926902649032,407.3600066914486,1288.7881517305207C399.6085515549627,1467.1836131961381,427.1304441641008,1594.3594092611827,417.41892789734425,1739.5613839727625C407.70741163058767,1884.7633586843424,360.47891222531496,2089.9268973287935,349.0909090909091,2160L 1920 2160 L 1920 -1080 Z" fill="url(&quot;#SvgjsLinearGradient1076&quot;)"></path><path d="M523.6363636363636,-1080C505.36127651103703,-1008.8286201662947,404.37635315961745,-825.7155183245272,413.9858408844042,-652.9717209977684C423.5953286091909,-480.22792367100965,550.969415779547,-263.5271203392774,581.2932899850839,-43.53721603944726C611.6171641906208,176.45268826038293,615.1735501057526,499.9722249223569,595.9290861176255,666.9677048012126C576.6846221294984,833.9631846800683,489.0271684687759,819.9268152823624,465.8265060563209,958.4356632336871C442.6258436438659,1096.9445111850118,447.0901353795551,1297.760069714775,456.7251116428955,1498.0207925091604C466.36008790623595,1698.2815153035458,512.4844883041189,2049.67013208486,523.6363636363636,2160L 1920 2160 L 1920 -1080 Z" fill="url(&quot;#SvgjsLinearGradient1077&quot;)"></path><path d="M698.1818181818182,-1080C709.0321354270948,-993.6372321966162,748.1092074137678,-735.1854862236509,763.2837216534776,-561.8233931796974C778.4582358931875,-388.46130013574395,779.7484314680089,-177.30216788255044,789.2289036200773,-39.82744173627944C798.7093757721457,97.64728440999156,843.5845677479681,131.42906116543853,820.166554565888,263.02496369792857C796.7485413838078,394.62086623041864,652.734345499593,595.1836646741604,648.7208245275965,749.7479734586609C644.7073035556,904.3122822431615,768.4036494483648,1015.3553190943273,796.0854287339089,1190.410816404932C823.7672080194529,1365.4663137155364,831.1287686662092,1638.4827600564436,814.8115002408608,1800.0809573222882C798.4942318155124,1961.6791545881329,717.620098524992,2100.013492887048,698.1818181818182,2160L 1920 2160 L 1920 -1080 Z" fill="url(&quot;#SvgjsLinearGradient1078&quot;)"></path><path d="M872.7272727272727,-1080C863.3414335241113,-982.3116409483871,834.7135989685456,-728.0563632111949,816.4122375083039,-493.86984569032256C798.1108760480621,-259.6833281694502,763.2959323026375,79.68174966378297,762.9191039658219,325.1191051252339C762.5422756290063,570.5564605866848,811.2731121231585,774.1087568127816,814.1512674874101,978.754287078383C817.0294228516617,1183.3998173439843,770.4253686113544,1356.118001231906,780.1880361513315,1552.992286718842C789.9507036913086,1749.866572205778,857.3040666312826,2058.8320477864736,872.7272727272727,2160L 1920 2160 L 1920 -1080 Z" fill="url(&quot;#SvgjsLinearGradient1079&quot;)"></path><path d="M1047.2727272727273,-1080C1046.2214162850837,-977.7746261827349,1028.2644087766384,-671.5259755595081,1040.9648613468655,-466.64775709640946C1053.6653139170926,-261.76953863331084,1107.8562305535802,-67.19338723117716,1123.4754426940892,149.26931077859163C1139.0946548345983,365.7320087883604,1153.1725293004645,613.3667650638398,1134.680134189919,832.1284309622031C1116.1877390793736,1050.8900968605662,1027.0889731836821,1240.527377995805,1012.5210720308168,1461.8393061687711C997.9531708779515,1683.1512343417373,1041.480784732409,2043.6398843614618,1047.2727272727273,2160L 1920 2160 L 1920 -1080 Z" fill="url(&quot;#SvgjsLinearGradient1080&quot;)"></path><path d="M1221.8181818181818,-1080C1201.4394575301912,-966.3326908610641,1112.3048332695985,-668.3897704423446,1099.545836090239,-397.99614516638474C1086.7868389108794,-127.60251989042484,1134.8330817303765,234.90961766911192,1145.2641987420238,542.3617516557593C1155.6953157536711,849.8138856424068,1149.3735409807637,1177.11028402946,1162.1325381601232,1446.7166587535C1174.8915353394827,1716.32303347754,1211.8705745418388,2041.1194431255833,1221.8181818181818,2160L 1920 2160 L 1920 -1080 Z" fill="url(&quot;#SvgjsLinearGradient1081&quot;)"></path><path d="M1396.3636363636365,-1080C1379.6793514296605,-1023.3944319487072,1316.8058536216586,-880.1650493323016,1296.2579267597814,-740.366591692243C1275.7099998979043,-600.5681340521844,1263.625061833205,-420.73543043997586,1273.0760751923729,-241.20925415964817C1282.5270885515406,-61.68307787932048,1344.1897662373437,186.60459739772529,1352.9640069147886,336.7904659897231C1361.7382475922334,486.9763345817209,1319.5211435216806,514.4043996378621,1325.7215192570416,659.9059573923387C1331.9218949924025,805.4075151468153,1383.6342380952685,1015.8404905931974,1390.1662613269546,1209.7998125165825C1396.6982845586406,1403.7591344399675,1363.880762807711,1665.2951910187462,1364.9136586471582,1823.6618889326492C1365.9465544866052,1982.0285868465521,1391.1219734108902,2103.9436481554417,1396.3636363636365,2160L 1920 2160 L 1920 -1080 Z" fill="url(&quot;#SvgjsLinearGradient1082&quot;)"></path><path d="M1570.909090909091,-1080C1589.327122558585,-988.6819695106984,1696.9456641189722,-667.9405637854113,1681.4172808060548,-532.0918170641905C1665.8888974931374,-396.24307034296976,1493.3688680404161,-413.1585592875007,1477.7387910315858,-264.90751967267505C1462.1087140227555,-116.65648005784945,1580.2011304657976,192.28759745293476,1587.6368187530725,357.4144206247631C1595.0725070403473,522.5412437965915,1527.9157794978732,576.6046966058149,1522.3529207552356,725.853419358295C1516.790062012598,875.1021421107752,1557.6763578659252,1076.7635100556245,1554.259666297246,1252.9067571396438C1550.8429747285668,1429.050004223663,1499.0778672411864,1631.5306947190188,1501.8527713431606,1782.7129018624116C1504.6276754451349,1933.8951090058044,1559.3997043147692,2097.1188169770685,1570.909090909091,2160L 1920 2160 L 1920 -1080 Z" fill="url(&quot;#SvgjsLinearGradient1083&quot;)"></path><path d="M1745.4545454545455,-1080C1748.2961122004156,-993.6793310766034,1779.5541932368155,-757.9231039844949,1762.5039459297661,-562.07598645962C1745.4536986227167,-366.22886893474515,1633.3913173041226,-99.31827155496194,1643.1530616122484,95.08270514924911C1652.9148059203742,289.48368185346015,1796.7366583555333,451.6684330622576,1821.0744117785205,604.3298737656462C1845.4121652015076,756.9913144690348,1799.1536783124177,837.8421681359277,1789.1795821501707,1011.0513493695809C1779.2054859879238,1184.260530603234,1768.5173409209767,1452.0935193958285,1761.2298348050392,1643.584961167565C1753.9423286891017,1835.0764029393017,1748.0837603462944,2073.930826861261,1745.4545454545455,2160L 1920 2160 L 1920 -1080 Z" fill="url(&quot;#SvgjsLinearGradient1084&quot;)"></path></g><defs><linearGradient x1="0.1" y1="0" x2="0" y2="1" id="SvgjsLinearGradient1074"><stop stop-color="#be89fe" offset="0"></stop><stop stop-color="#aa89fe" offset="0"></stop></linearGradient><linearGradient x1="0.1" y1="0" x2="0" y2="1" id="SvgjsLinearGradient1075"><stop stop-color="#ad6bfe" offset="0"></stop><stop stop-color="#946bfe" offset="0.09090909090909091"></stop></linearGradient><linearGradient x1="0.1" y1="0" x2="0" y2="1" id="SvgjsLinearGradient1076"><stop stop-color="#9d4dfd" offset="0"></stop><stop stop-color="#804dfd" offset="0.18181818181818182"></stop></linearGradient><linearGradient x1="0.1" y1="0" x2="0" y2="1" id="SvgjsLinearGradient1077"><stop stop-color="#8c2ffd" offset="0"></stop><stop stop-color="#6a2ffd" offset="0.2727272727272727"></stop></linearGradient><linearGradient x1="0.1" y1="0" x2="0" y2="1" id="SvgjsLinearGradient1078"><stop stop-color="#7c11fd" offset="0"></stop><stop stop-color="#5511fd" offset="0.36363636363636365"></stop></linearGradient><linearGradient x1="0.1" y1="0" x2="0" y2="1" id="SvgjsLinearGradient1079"><stop stop-color="#6d02ee" offset="0"></stop><stop stop-color="#4602ee" offset="0.45454545454545453"></stop></linearGradient><linearGradient x1="0.1" y1="0" x2="0" y2="1" id="SvgjsLinearGradient1080"><stop stop-color="#5f02d0" offset="0"></stop><stop stop-color="#3d02d0" offset="0.5454545454545454"></stop></linearGradient><linearGradient x1="0.1" y1="0" x2="0" y2="1" id="SvgjsLinearGradient1081"><stop stop-color="#5102b2" offset="0"></stop><stop stop-color="#3402b2" offset="0.6363636363636364"></stop></linearGradient><linearGradient x1="0.1" y1="0" x2="0" y2="1" id="SvgjsLinearGradient1082"><stop stop-color="#440194" offset="0"></stop><stop stop-color="#2b0194" offset="0.7272727272727273"></stop></linearGradient><linearGradient x1="0.1" y1="0" x2="0" y2="1" id="SvgjsLinearGradient1083"><stop stop-color="#360176" offset="0"></stop><stop stop-color="#220176" offset="0.8181818181818182"></stop></linearGradient><linearGradient x1="0.1" y1="0" x2="0" y2="1" id="SvgjsLinearGradient1084"><stop stop-color="#280158" offset="0"></stop><stop stop-color="#190158" offset="0.9090909090909091"></stop></linearGradient></defs></svg>