<svg xmlns="http://www.w3.org/2000/svg" version="1.1" xmlns:xlink="http://www.w3.org/1999/xlink"
    xmlns:svgjs="http://svgjs.dev/svgjs" viewBox="0 0 1920 1080">
    <rect width="100%" height="100%" fill="#0e2bf5"></rect>
    <g
        transform="matrix(-2.112515728529184e-16,-1.15,1.15,-2.112515728529184e-16,279.06238555908226,1575.0717433929444)">
        <path
            d="M0,-1080C-18.740931414584278,-1019.5471243002215,-96.37549733106702,-855.8980995097719,-112.44558848750566,-717.2827458013292C-128.51567964394428,-578.6673920928864,-116.37454588478978,-424.9687466105055,-96.42054693863179,-248.30787774934356C-76.46654799247379,-71.64700888818163,-22.65913242987196,163.7611446748987,7.278405189442282,342.6824673656424C37.21594280875652,521.6037900563862,84.7018254702993,682.3901018811193,83.20467877725366,825.2200583951186C81.70753208420803,968.0500149091179,27.714171950576787,1047.3337945013939,-1.704474968831562,1199.662206449638C-31.12312188823991,1351.9906183978821,-93.59128190066836,1579.1342311595226,-93.30720273919644,1739.190530084583C-93.02312357772452,1899.2468290096435,-15.55120045653274,2089.8650883474306,0,2160L 1920 2160 L 1920 -1080 Z"
            fill="url(&quot;#SvgjsLinearGradient1027&quot;)"></path>
        <path
            d="M174.54545454545456,-1080C180.2301728909233,-976.9511923304728,214.39408437426613,-656.5955479882437,208.65376461826702,-461.707153982837C202.9134448622679,-266.8187599774303,149.81027182500316,-140.98124461291616,140.10353600945993,89.33036403243966C130.3968001939167,319.6419726777955,139.27540753799573,677.0857679282592,150.41334972500775,920.1624978892979C161.55129191201976,1163.2392278503366,202.90917166145752,1341.1511601135549,206.931189131532,1547.7907437986719C210.95320660160647,1754.430327483789,179.94307697646747,2057.9651239664454,174.54545454545456,2160L 1920 2160 L 1920 -1080 Z"
            fill="url(&quot;#SvgjsLinearGradient1028&quot;)"></path>
        <path
            d="M349.0909090909091,-1080C364.99792570702726,-956.6309744155485,462.9196676337626,-607.6796177065185,444.53300878761786,-339.78584649329093C426.14634994147315,-71.89207528006347,247.6162480631443,234.0342148643661,238.77095601404096,527.3626272793649C229.92566396493763,820.6910396943638,373.0745976468531,1148.0783992099293,391.4612564929978,1420.184627996702C409.8479153391425,1692.2908567834745,356.1526336579239,2036.6974379994504,349.0909090909091,2160L 1920 2160 L 1920 -1080 Z"
            fill="url(&quot;#SvgjsLinearGradient1029&quot;)"></path>
        <path
            d="M523.6363636363636,-1080C504.69302251714925,-998.3845721228731,389.9017455124522,-730.9440121719753,409.9763169210772,-590.3074327372384C430.0508883297023,-449.67085330250154,625.0033391737693,-382.59749474475313,644.0837920881138,-236.1805233915788C663.1642450024583,-89.76355203840441,537.0562334506749,114.17804360682078,524.4590344071444,288.1943953818079C511.8618353636138,462.21074715679504,581.4131601833684,646.0692637197928,568.5005978269305,807.917587258344C555.5880354704926,969.7659107968952,433.1840247114972,1109.2121040649022,446.9836602685169,1259.2843366131149C460.78329582553664,1409.3565691613276,638.5229606077411,1558.231705316473,651.2984111690489,1708.3509825476203C664.0738617303567,1858.4702597787677,544.9133715584778,2084.7251637579366,523.6363636363636,2160L 1920 2160 L 1920 -1080 Z"
            fill="url(&quot;#SvgjsLinearGradient1030&quot;)"></path>
        <path
            d="M698.1818181818182,-1080C704.3661543139467,-952.5381471700586,730.1317281977881,-577.9827495443221,735.2878349745889,-315.2288830203511C740.4439417513897,-52.47501649638002,727.4611982839469,217.3750068393809,729.118458842623,496.5231991438262C730.775719401299,775.6713914482716,750.3875051034461,1082.414137330292,745.2313983266453,1359.660270806321C740.0752915498445,1636.90640428235,706.0234148726228,2026.6100451343868,698.1818181818182,2160L 1920 2160 L 1920 -1080 Z"
            fill="url(&quot;#SvgjsLinearGradient1031&quot;)"></path>
        <path
            d="M872.7272727272727,-1080C853.2113783726495,-989.4640760747175,757.6279187723711,-732.9331404316858,755.631906599533,-536.7844564483048C753.6358944266948,-340.6357724649238,856.6925832876595,-97.25876272312664,860.751199690244,96.89210390028614C864.8098160928284,291.04297052369895,790.9012682984953,445.98576290462347,779.9836050150398,628.120743292172C769.0659417315842,810.2557236797206,763.1560040664842,1012.9981785443086,795.2452199895108,1189.701986225578C827.3344359125374,1366.4057939068473,959.6052250969059,1526.6272537507175,972.5189005531995,1688.3435893797878C985.4325760094931,1850.059925008858,889.3592106982605,2081.390598229965,872.7272727272727,2160L 1920 2160 L 1920 -1080 Z"
            fill="url(&quot;#SvgjsLinearGradient1032&quot;)"></path>
        <path
            d="M1047.2727272727273,-1080C1041.8913393127377,-981.0170099019646,995.7013428172487,-718.2485863628351,1014.9843995127898,-486.1020594117873C1034.2674562083307,-253.95553246073948,1172.3644319004409,103.38687384037635,1162.9710674459734,312.87916170628705C1153.577702991506,522.3714495721978,979.8796741561873,558.0327800812784,958.6242127859852,770.8516677836769C937.368751415783,983.6705554860755,1020.6635468103036,1358.2677658846246,1035.4382992247606,1589.7924879206785C1050.2130516392176,1821.3172099567323,1045.300322598066,2064.9654146534463,1047.2727272727273,2160L 1920 2160 L 1920 -1080 Z"
            fill="url(&quot;#SvgjsLinearGradient1033&quot;)"></path>
        <path
            d="M1221.8181818181818,-1080C1237.4219517145084,-999.615993776784,1306.49369877295,-742.7202058000208,1315.4408011961414,-597.6959626607039C1324.3879036193327,-452.671719521387,1284.5576949178644,-357.9788560565743,1275.5007963573296,-209.85454116409832C1266.4438977967948,-61.73022627162237,1264.8592915118454,126.62722593330923,1261.0994098329318,291.04992669415185C1257.3395281540181,455.4726274549945,1246.3565038842773,614.4778189853026,1252.9415062838473,776.6816634009574C1259.5265086834172,938.8855078166122,1300.1578462750358,1127.5561780859364,1300.6094242303514,1264.2729931880804C1301.061002185667,1400.9898082902243,1268.782847751102,1447.6947195451676,1255.6509740157405,1596.9825540138208C1242.519100280379,1746.2703884824741,1227.4569805177748,2066.1637590023033,1221.8181818181818,2160L 1920 2160 L 1920 -1080 Z"
            fill="url(&quot;#SvgjsLinearGradient1034&quot;)"></path>
        <path
            d="M1396.3636363636365,-1080C1383.197536777161,-927.6586499818409,1329.5157642512656,-434.26689823234653,1317.3670388447836,-165.95189989104495C1305.2183134383015,102.36309845025664,1303.2549342328696,298.0293803489111,1323.4712839247443,529.8899900478095C1343.687633616619,761.750599746708,1426.51641158955,953.5267566436476,1438.665136996032,1225.211758302346C1450.8138624025141,1496.8967599610444,1403.4138864690358,2004.2019597170577,1396.3636363636365,2160L 1920 2160 L 1920 -1080 Z"
            fill="url(&quot;#SvgjsLinearGradient1035&quot;)"></path>
        <path
            d="M1570.909090909091,-1080C1572.2108957086123,-1017.2278348598536,1574.988517594779,-818.8092848289466,1578.7199197062191,-703.3670091591217C1582.4513218176592,-587.9247334892968,1574.792749945642,-547.3530342273773,1593.2975035777313,-387.34634598105083C1611.8022572098205,-227.3396577347244,1707.7182092595745,123.44747896394969,1689.7484414987546,256.67312031883677C1671.7786737379347,389.8987616737238,1508.320433468725,286.6026767740926,1485.478897012812,412.00750214827167C1462.637360556899,537.4123275224507,1547.7213594333168,862.8507816357652,1552.6992227632768,1009.1020725639112C1557.6770860932368,1155.353363492057,1519.7800895078212,1157.759266190896,1515.3460769925714,1289.5152477171473C1510.9120644773216,1421.2712292433987,1516.8346453523582,1654.557169674277,1526.095147671778,1799.637961721419C1535.3556499911979,1944.718753768561,1563.4401003695389,2099.9396602869033,1570.909090909091,2160L 1920 2160 L 1920 -1080 Z"
            fill="url(&quot;#SvgjsLinearGradient1036&quot;)"></path>
        <path
            d="M1745.4545454545455,-1080C1742.7847815430057,-932.2171808647106,1732.2837165230608,-446.64842632986193,1729.4359619853067,-193.30308518826354C1726.5882074475526,60.04225595333486,1736.965330236671,170.5674582342764,1728.3680182280207,440.0720468495903C1719.7707062193704,709.5766354649043,1675.00433539565,1137.0697876452186,1677.8520899334042,1423.7244465036201C1680.6998444711583,1710.3791053620216,1734.1874695343554,2037.2874077506033,1745.4545454545455,2160L 1920 2160 L 1920 -1080 Z"
            fill="url(&quot;#SvgjsLinearGradient1037&quot;)"></path>
    </g>
    <defs>
        <linearGradient x1="0.1" y1="0" x2="0" y2="1" id="SvgjsLinearGradient1027">
            <stop stop-color="#0e2bf5" offset="0"></stop>
            <stop stop-color="#0e51f5" offset="0"></stop>
        </linearGradient>
        <linearGradient x1="0.1" y1="0" x2="0" y2="1" id="SvgjsLinearGradient1028">
            <stop stop-color="#3149f6" offset="0"></stop>
            <stop stop-color="#316af6" offset="0.09090909090909091"></stop>
        </linearGradient>
        <linearGradient x1="0.1" y1="0" x2="0" y2="1" id="SvgjsLinearGradient1029">
            <stop stop-color="#5368f8" offset="0"></stop>
            <stop stop-color="#5383f8" offset="0.18181818181818182"></stop>
        </linearGradient>
        <linearGradient x1="0.1" y1="0" x2="0" y2="1" id="SvgjsLinearGradient1030">
            <stop stop-color="#7586f9" offset="0"></stop>
            <stop stop-color="#759cf9" offset="0.2727272727272727"></stop>
        </linearGradient>
        <linearGradient x1="0.1" y1="0" x2="0" y2="1" id="SvgjsLinearGradient1031">
            <stop stop-color="#98a4fb" offset="0"></stop>
            <stop stop-color="#98b4fb" offset="0.36363636363636365"></stop>
        </linearGradient>
        <linearGradient x1="0.1" y1="0" x2="0" y2="1" id="SvgjsLinearGradient1032">
            <stop stop-color="#bac3fc" offset="0"></stop>
            <stop stop-color="#bacefc" offset="0.45454545454545453"></stop>
        </linearGradient>
        <linearGradient x1="0.1" y1="0" x2="0" y2="1" id="SvgjsLinearGradient1033">
            <stop stop-color="#dde1fe" offset="0"></stop>
            <stop stop-color="#dde6fe" offset="0.5454545454545454"></stop>
        </linearGradient>
        <linearGradient x1="0.1" y1="0" x2="0" y2="1" id="SvgjsLinearGradient1034">
            <stop stop-color="#ffffff" offset="0"></stop>
            <stop stop-color="#ffffff" offset="0.6363636363636364"></stop>
        </linearGradient>
        <linearGradient x1="0.1" y1="0" x2="0" y2="1" id="SvgjsLinearGradient1035">
            <stop stop-color="#ffffff" offset="0"></stop>
            <stop stop-color="#ffffff" offset="0.7272727272727273"></stop>
        </linearGradient>
        <linearGradient x1="0.1" y1="0" x2="0" y2="1" id="SvgjsLinearGradient1036">
            <stop stop-color="#ffffff" offset="0"></stop>
            <stop stop-color="#ffffff" offset="0.8181818181818182"></stop>
        </linearGradient>
        <linearGradient x1="0.1" y1="0" x2="0" y2="1" id="SvgjsLinearGradient1037">
            <stop stop-color="#ffffff" offset="0"></stop>
            <stop stop-color="#ffffff" offset="0.9090909090909091"></stop>
        </linearGradient>
    </defs>
</svg>